<svg width="721" height="283" viewBox="0 0 721 283" fill="none" xmlns="http://www.w3.org/2000/svg">
<path d="M163 140.5C163 176.122 191.878 205 227.5 205L255.5 205L226.5 235L227.5 235C175.309 235 133 192.691 133 140.5C133 88.3091 175.309 46 227.5 46L427.5 46L397.5 76L227.5 76C191.878 76 163 104.878 163 140.5Z" fill="black"/>
<path d="M566.5 140.5C566.5 104.878 537.622 76 502 76L474 76L503 46L502 46C554.191 46 596.5 88.3091 596.5 140.5C596.5 192.691 554.191 235 502 235L365 235L392 205L502 205C537.622 205 566.5 176.122 566.5 140.5Z" fill="black"/>
<path d="M366.012 98.4991L224.882 266.38L340.776 171.162L348.984 212.415L504.678 0.000272155L398.529 107.516L366.012 98.4991Z" fill="#FF4400"/>
<rect x="456" y="123" width="265" height="35" rx="17.5" fill="black"/>
<rect y="123" width="265" height="35" rx="17.5" fill="black"/>
</svg>
